<svg width="21" height="21" viewBox="0 0 21 21" fill="none" xmlns="http://www.w3.org/2000/svg">
<path d="M19.729 11.6599C19.4923 11.9205 19.1735 12.065 18.8425 12.0617C18.5116 12.0583 18.1957 11.9073 17.9644 11.642L11.6551 4.40164C11.4641 4.18249 11.2366 4.00787 10.9854 3.88776C10.7342 3.76765 10.4643 3.7044 10.1911 3.70162C9.91786 3.69884 9.64673 3.75659 9.39314 3.87156C9.13955 3.98654 8.90848 4.15649 8.71312 4.37171L2.25785 11.4822C2.14231 11.619 2.0035 11.7283 1.84969 11.8036C1.69589 11.8789 1.53025 11.9186 1.36265 11.9204C1.19504 11.9222 1.02892 11.886 0.874178 11.814C0.719438 11.742 0.579255 11.6357 0.461989 11.5014C0.344724 11.3671 0.25278 11.2076 0.191642 11.0323C0.130503 10.8571 0.101423 10.6697 0.106136 10.4814C0.11085 10.293 0.14926 10.1076 0.219075 9.93611C0.288891 9.76464 0.38868 9.61066 0.512493 9.48334L6.96859 2.37286C7.83656 1.41695 9.00597 0.886865 10.2196 0.899209C11.4332 0.911552 12.5915 1.46531 13.4399 2.43868L19.75 9.679C19.9806 9.94435 20.1079 10.3018 20.1041 10.6732C20.1003 11.0445 19.9649 11.3993 19.729 11.6599Z" fill="#D4E1ED"/>
<path d="M19.6384 20.5855C19.4017 20.8462 19.0828 20.9907 18.7518 20.9873C18.4209 20.9839 18.105 20.833 17.8737 20.5676L10.4014 11.9928C10.3243 11.9044 10.219 11.854 10.1087 11.8529C9.99836 11.8518 9.89207 11.9 9.81317 11.9868L2.16718 20.4069C1.92869 20.6557 1.61347 20.7904 1.28857 20.7823C0.96366 20.7741 0.654691 20.6239 0.427357 20.3634C0.200022 20.1029 0.0722549 19.7528 0.0712228 19.3874C0.0701908 19.0221 0.195974 18.6704 0.421829 18.4071L8.06778 9.99078C8.62067 9.38352 9.36469 9.04692 10.1367 9.05477C10.9087 9.06262 11.6458 9.41429 12.1862 10.0327L19.6594 18.6028C19.8904 18.8682 20.018 19.2261 20.0143 19.5979C20.0105 19.9696 19.8747 20.3249 19.6384 20.5855Z" fill="#D4E1ED"/>
</svg>
