<svg width="21" height="21" viewBox="0 0 21 21" fill="none" xmlns="http://www.w3.org/2000/svg">
<path d="M19.7275 10.8627C19.4907 11.1233 19.1719 11.2678 18.8409 11.2644C18.51 11.2611 18.1941 11.1101 17.9628 10.8447L11.6535 3.60438C11.4625 3.38523 11.235 3.21062 10.9838 3.09051C10.7326 2.9704 10.4627 2.90714 10.1895 2.90437C9.91628 2.90159 9.64514 2.95934 9.39155 3.07431C9.13797 3.18929 8.90689 3.35924 8.71153 3.57446L2.25627 10.685C2.14072 10.8217 2.00191 10.931 1.84811 11.0063C1.6943 11.0816 1.52866 11.1213 1.36106 11.1231C1.19346 11.1249 1.02733 11.0888 0.872591 11.0168C0.717851 10.9448 0.577667 10.8385 0.460403 10.7042C0.343137 10.5699 0.251194 10.4104 0.190055 10.2351C0.128917 10.0598 0.0998365 9.87246 0.10455 9.68412C0.109262 9.49577 0.147672 9.31034 0.217487 9.13887C0.287304 8.9674 0.387093 8.81341 0.510905 8.68609L6.967 1.5756C7.83498 0.619697 9.00438 0.0896097 10.218 0.101953C11.4316 0.114297 12.59 0.66806 13.4383 1.64143L19.7484 8.88176C19.979 9.1471 20.1063 9.5046 20.1025 9.87592C20.0987 10.2472 19.9633 10.6021 19.7275 10.8627Z" fill="#25384D"/>
<path d="M19.6374 19.7879C19.4007 20.0485 19.0818 20.1931 18.7509 20.1897C18.4199 20.1863 18.1041 20.0354 17.8727 19.77L10.4004 11.1952C10.3233 11.1067 10.218 11.0564 10.1077 11.0553C9.99739 11.0542 9.89109 11.1023 9.81219 11.1892L2.1662 19.6093C1.92771 19.8581 1.6125 19.9928 1.28759 19.9847C0.962683 19.9765 0.653714 19.8263 0.42638 19.5658C0.199045 19.3053 0.0712784 18.9552 0.0702466 18.5898C0.0692147 18.2245 0.194998 17.8728 0.420854 17.6095L8.0668 9.19316C8.61969 8.5859 9.36371 8.24929 10.1357 8.25715C10.9078 8.265 11.6448 8.61667 12.1852 9.23505L19.6584 17.8051C19.8894 18.0706 20.0171 18.4285 20.0133 18.8003C20.0095 19.172 19.8738 19.5272 19.6374 19.7879Z" fill="#25384D"/>
</svg>
