<svg width="8" height="7" viewBox="0 0 8 7" fill="none" xmlns="http://www.w3.org/2000/svg">
<path d="M5.83259 0C5.4574 0.00581173 5.09038 0.110114 4.76861 0.302374C4.44684 0.494635 4.18171 0.768044 4 1.09499C3.81829 0.768044 3.55316 0.494635 3.23139 0.302374C2.90962 0.110114 2.5426 0.00581173 2.16741 0C1.56929 0.0258786 1.00578 0.286442 0.599966 0.724763C0.194155 1.16309 -0.0209614 1.74354 0.00161305 2.3393C0.00161305 3.84807 1.5963 5.49587 2.93376 6.61309C3.23238 6.86299 3.60994 7 4 7C4.39006 7 4.76762 6.86299 5.06624 6.61309C6.4037 5.49587 7.99839 3.84807 7.99839 2.3393C8.02096 1.74354 7.80584 1.16309 7.40003 0.724763C6.99422 0.286442 6.43071 0.0258786 5.83259 0ZM4.63808 6.10541C4.45948 6.25519 4.23349 6.33732 4 6.33732C3.76651 6.33732 3.54052 6.25519 3.36192 6.10541C1.64995 4.67496 0.668011 3.30257 0.668011 2.3393C0.645234 1.91946 0.790084 1.50768 1.07097 1.19377C1.35186 0.879867 1.74599 0.689298 2.16741 0.663632C2.58882 0.689298 2.98296 0.879867 3.26384 1.19377C3.54473 1.50768 3.68958 1.91946 3.6668 2.3393C3.6668 2.42731 3.70191 2.5117 3.76439 2.57393C3.82688 2.63616 3.91163 2.67112 4 2.67112C4.08837 2.67112 4.17312 2.63616 4.23561 2.57393C4.29809 2.5117 4.3332 2.42731 4.3332 2.3393C4.31042 1.91946 4.45527 1.50768 4.73616 1.19377C5.01704 0.879867 5.41117 0.689298 5.83259 0.663632C6.25401 0.689298 6.64814 0.879867 6.92903 1.19377C7.20992 1.50768 7.35477 1.91946 7.33199 2.3393C7.33199 3.30257 6.35005 4.67496 4.63808 6.10409V6.10541Z" fill="#D4E1ED"/>
</svg>
