<svg width="8" height="7" viewBox="0 0 8 7" fill="none" xmlns="http://www.w3.org/2000/svg">
<path d="M5.83259 0C5.4574 0.00581174 5.09038 0.110114 4.76861 0.302374C4.44684 0.494635 4.18171 0.768044 4 1.09499C3.81829 0.768044 3.55316 0.494635 3.23139 0.302374C2.90962 0.110114 2.5426 0.00581174 2.16741 0C1.56929 0.0258786 1.00578 0.286442 0.599966 0.724763C0.194155 1.16309 -0.0209614 1.74354 0.00161305 2.3393C0.00161305 3.84807 1.5963 5.49587 2.93376 6.61309C3.23238 6.86299 3.60994 7 4 7C4.39006 7 4.76762 6.86299 5.06624 6.61309C6.4037 5.49587 7.99839 3.84807 7.99839 2.3393C8.02096 1.74354 7.80584 1.16309 7.40003 0.724763C6.99422 0.286442 6.43071 0.0258786 5.83259 0Z" fill="#25384D"/>
</svg>
