<svg width="56" height="63" viewBox="0 0 56 63" fill="none" xmlns="http://www.w3.org/2000/svg">
<path d="M54.978 56.2938L44.1384 44.0951C52.2491 31.9025 50.0376 14.6221 39.1989 5.49837C28.3602 -3.6254 12.9986 -1.13764 4.88785 11.0549C-3.22285 23.2474 -1.01132 40.5278 9.8274 49.6516C18.534 56.9806 30.4922 56.9806 39.1989 49.6516L50.0431 61.8503C51.4058 63.3832 53.6153 63.3832 54.9779 61.8503C56.3407 60.3173 56.3407 57.8319 54.9779 56.299L54.978 56.2938ZM24.6035 47.2971C14.9706 47.2971 7.16162 38.5128 7.16162 27.6766C7.16162 16.8405 14.9706 8.05615 24.6035 8.05615C34.2365 8.05615 42.0454 16.8405 42.0454 27.6766C42.0352 38.5079 34.2322 47.2856 24.6035 47.2971Z" fill="#25384D"/>
</svg>
